<svg xmlns="http://www.w3.org/2000/svg" width="1024" height="1024" viewBox="0 0 1024 1024">
  <defs>
    <linearGradient id="blue" x2="0" y2="1">
      <stop stop-color="#69b9ff"/>
      <stop offset="1" stop-color="#1455e8"/>
    </linearGradient>
    <filter id="shadow" x="-20%" y="-20%" width="140%" height="150%">
      <feDropShadow dy="16" stdDeviation="14" flood-opacity=".25"/>
    </filter>
    <filter id="letter-shadow" x="-20%" y="-20%" width="140%" height="150%">
      <feDropShadow dy="8" stdDeviation="5" flood-color="#04377c" flood-opacity=".45"/>
    </filter>
    <pattern id="grid" width="96" height="96" patternUnits="userSpaceOnUse">
      <path d="M96 0H0V96" fill="none" stroke="white" stroke-opacity=".12" stroke-width="2"/>
    </pattern>
  </defs>
  <rect x="92" y="80" width="840" height="840" rx="186" fill="url(#blue)" filter="url(#shadow)"/>
  <rect x="92" y="80" width="840" height="840" rx="186" fill="url(#grid)" stroke="white" stroke-opacity=".28" stroke-width="3"/>
  <g transform="translate(512 0) skewX(-9) translate(-512 0) translate(78 0)" fill="#fff" fill-rule="evenodd" filter="url(#letter-shadow)">
    <path d="M218 696L342 328H446L520 696H424L410 620H332L305 696ZM358 540H399L384 440Z"/>
    <path d="M530 328H828V410L633 612H802V696H500V614L696 412H530Z"/>
  </g>
</svg>
